<svg xmlns="http://www.w3.org/2000/svg" xmlns:xlink="http://www.w3.org/1999/xlink" width="435.297" height="327.328" viewBox="0 0 435.297 327.328">
  <defs>
    <linearGradient id="linear-gradient" x1="0.034" y1="0.055" x2="0.65" y2="0.651" gradientUnits="objectBoundingBox">
      <stop offset="0" stop-color="#23bac2"/>
      <stop offset="1" stop-color="#2777ff"/>
    </linearGradient>
  </defs>
  <g id="kali-dragon-icon" transform="translate(-10.519 -38.682)">
    <path id="Path_6" data-name="Path 6" d="M92.6,49.2c-30.912.035-51.331,2.524-51.5,2.545l-.117.011a1.569,1.569,0,0,0,.267,3.125s112.4-5.31,202.488,30.9c3.214,13.752,11.7,34.83,16.718,46.034-6.827,4.685-14.15,9.441-20.175,16.989-6.325,7.923-11.1,18.856-12.377,35.573-2.582,33.911,26.5,63.6,62.473,64.513,33.356,1.776,56.035,2.021,83.644,16.33,12.893,7.138,24.9,21.81,33.87,39.733s14.927,39.089,16,59.04a1.569,1.569,0,0,0,3.131.039c.005-.061,0-.144,0-.205,1.158-15.277-1.1-38.925-10.256-61.421-7.671-18.843-20.344-36.782-39.829-48.034,28,7.647,44.036,21.86,53.252,34.847,10.575,14.9,12.136,28.163,12.127,28.09a1.569,1.569,0,0,0,3.121-.049s1.39-16.256-9.827-34.168-35.03-37.49-84.674-44.775a322.122,322.122,0,0,0-44.527-3.3h-.025c-38.917.515-58.537-21.667-61.591-44.419a43.752,43.752,0,0,1,7.753-31.829c6.609-8.929,17.126-15.322,31.618-16.455h.006c23.794-1.963,52.814,10.9,81.352,24.183-.028,3.3.264,6.624,2.674,9.636,1.614,2.017,4.525,3.419,7.488,4.818s6.011,2.667,7.221,3.361c2.75,1.579,11.924,7.463,17.331,14.5a1.569,1.569,0,0,0,2.629-.215,15.957,15.957,0,0,1,1.935-1.908c1.085-.908,2.462-1.942,3.8-2.908,2.682-1.931,5.22-3.585,5.22-3.585a1.569,1.569,0,0,0-.888-2.883,8.262,8.262,0,0,1-1.617-.213,37.5,37.5,0,0,1-5.975-1.771,33.167,33.167,0,0,1-7.988-4.908c-1.181-.938-2.2-1.825-2.916-2.489-.086-.079-.122-.118-.2-.191a2.615,2.615,0,0,0,.7-2.434,5.743,5.743,0,0,0-.8-1.8A15.572,15.572,0,0,0,392,170.831l0,0c.086.086-.176-.221-.441-.607s-.608-.913-.993-1.518c-.77-1.211-1.714-2.751-2.633-4.268-1.837-3.034-3.494-5.855-3.655-6.123a3.769,3.769,0,0,0-1.17-1.354,1.568,1.568,0,0,0-.392-.189,6.23,6.23,0,0,0-2.452-.168c-.892.046-1.883.151-2.822.271-1.57.2-2.544.377-2.969.451-1.061-.56-9.358-5.156-12.407-14.52a1.569,1.569,0,0,0-3.06.527c.017.615-.914,2.449-.712,5.222-3.686-2.221-6.858-5.75-9.62-13.02a1.569,1.569,0,0,0-2.926-.023,13.113,13.113,0,0,0-.907,6.612c-3.5-1.646-9.234-5.269-10.484-12.47a1.569,1.569,0,0,0-2.99-.345,11.811,11.811,0,0,0-.948,6.055c-6.525-2.8-24.5-9.343-51.317-9.488-5.176-.475-9.29-3.066-12.67-6.95a43.462,43.462,0,0,1-7.763-14.425A73.925,73.925,0,0,1,255.3,89.021c-.486-4.573-.282-8.353.057-9.437a1.569,1.569,0,0,0-.765-1.857s-32.8-17.253-96.914-24.838A552.745,552.745,0,0,0,92.6,49.2Zm74.876,34.168c-9.77.074-20.256.438-31.275,1.221-58.863,4.184-118.122,24.75-118.122,24.75a1.569,1.569,0,0,0,.9,3S139.837,82,240.8,99.785a1.562,1.562,0,0,0,.271.025h0a1.569,1.569,0,0,0,1.5-2.034l-2.639-8.516a1.569,1.569,0,0,0-1.225-1.081s-28.908-5.132-71.236-4.814h-.012Zm71.77,18.138c-10.389-.044-42.356,1.265-90.371,16.289-60.258,18.855-94.554,45.659-94.554,45.659a1.569,1.569,0,0,0,1.732,2.6s89.223-49.761,189.7-52.585a1.569,1.569,0,0,0,1.445-2.06l-2.887-8.74a1.569,1.569,0,0,0-1.385-1.073s-1.279-.084-3.677-.094Zm65.7-.146a1.569,1.569,0,0,0-.849,2.873h0a1.569,1.569,0,0,0,.293.154c27.555,11.2,51.455,26.01,69.981,46.365l.051.053,0,0a1.569,1.569,0,0,0,1.211.456l4.5-.293a1.569,1.569,0,0,0,1.108-2.563S355.2,116.855,305.568,101.48l-.016-.008-.076-.027-.043-.014a1.57,1.57,0,0,0-.493-.074ZM383.4,167.783c.9.182,2.6,3.527,4.163,5.916.137.194.277.4.408.564a.059.059,0,0,0,.012.039c.176.252.352.513.521.722.085.5.227.8-.942.564a1.24,1.24,0,0,0-.267-.663,16.963,16.963,0,0,1-3.688-2.869,4.8,4.8,0,0,1-.6-4.063.351.351,0,0,1,.386-.211Z" transform="translate(0.329 0.532)" opacity="0.2"/>
    <g id="Group_1" data-name="Group 1" transform="translate(159.307 48.644)">
      <circle id="Ellipse_1" data-name="Ellipse 1" cx="131.77" cy="131.77" r="131.77" transform="translate(11.307 13.774)" fill="#153f86"/>
      <circle id="Ellipse_2" data-name="Ellipse 2" cx="131.77" cy="131.77" r="131.77" transform="translate(0.003 0)" opacity="0.595" fill="url(#linear-gradient)"/>
      <circle id="Ellipse_3" data-name="Ellipse 3" cx="131.77" cy="131.77" r="131.77" transform="translate(0.003 0)" fill="url(#linear-gradient)"/>
      <path id="Path_7" data-name="Path 7" d="M420.3,259.3a131.679,131.679,0,0,1-263.287,1.061q-.077,1.288-.129,2.578a131.77,131.77,0,1,0,263.54,0q-.039-1.82-.128-3.64Z" transform="translate(-156.888 -131.165)" opacity="0.1"/>
      <path id="Path_8" data-name="Path 8" d="M288.66,137.34A131.77,131.77,0,0,0,156.89,269.11q.039,1.817.129,3.633a131.679,131.679,0,0,1,263.288-1.061q.077-1.285.129-2.572a131.77,131.77,0,0,0-131.77-131.77Z" transform="translate(-156.887 -137.34)" fill="#fff" opacity="0.1"/>
    </g>
    <path id="Path_9" data-name="Path 9" d="M92.6,49.2c-30.912.035-51.331,2.524-51.5,2.545l-.117.011a1.569,1.569,0,0,0,.267,3.125s112.4-5.31,202.488,30.9c3.214,13.752,11.7,34.83,16.718,46.034-6.827,4.685-14.15,9.441-20.175,16.989-6.325,7.923-11.1,18.856-12.377,35.573-2.582,33.911,26.5,63.6,62.473,64.513,33.356,1.776,56.035,2.021,83.644,16.33,12.893,7.138,24.9,21.81,33.87,39.733s14.927,39.089,16,59.04a1.569,1.569,0,0,0,3.131.039c.005-.061,0-.144,0-.205,1.158-15.277-1.1-38.925-10.256-61.421-7.671-18.843-20.344-36.782-39.829-48.034,28,7.647,44.036,21.86,53.252,34.847,10.575,14.9,12.136,28.163,12.127,28.09a1.569,1.569,0,0,0,3.121-.049s1.39-16.256-9.827-34.168-35.03-37.49-84.674-44.775a322.122,322.122,0,0,0-44.527-3.3h-.025c-38.917.515-58.537-21.667-61.591-44.419a43.752,43.752,0,0,1,7.753-31.829c6.609-8.929,17.126-15.322,31.618-16.455h.006c23.794-1.963,52.814,10.9,81.352,24.183-.028,3.3.264,6.624,2.674,9.636,1.614,2.017,4.525,3.419,7.488,4.818s6.011,2.667,7.221,3.361c2.75,1.579,11.924,7.463,17.331,14.5a1.569,1.569,0,0,0,2.629-.215,15.957,15.957,0,0,1,1.935-1.908c1.085-.908,2.462-1.942,3.8-2.908,2.682-1.931,5.22-3.585,5.22-3.585a1.569,1.569,0,0,0-.888-2.883,8.262,8.262,0,0,1-1.617-.213,37.5,37.5,0,0,1-5.975-1.771,33.167,33.167,0,0,1-7.988-4.908c-1.181-.938-2.2-1.825-2.916-2.489-.086-.079-.122-.118-.2-.191a2.615,2.615,0,0,0,.7-2.434,5.743,5.743,0,0,0-.8-1.8A15.572,15.572,0,0,0,392,170.831l0,0c.086.086-.176-.221-.441-.607s-.608-.913-.993-1.518c-.77-1.211-1.714-2.751-2.633-4.268-1.837-3.034-3.494-5.855-3.655-6.123a3.769,3.769,0,0,0-1.17-1.354,1.568,1.568,0,0,0-.392-.189,6.23,6.23,0,0,0-2.452-.168c-.892.046-1.883.151-2.822.271-1.57.2-2.544.377-2.969.451-1.061-.56-9.358-5.156-12.407-14.52a1.569,1.569,0,0,0-3.06.527c.017.615-.914,2.449-.712,5.222-3.686-2.221-6.858-5.75-9.62-13.02a1.569,1.569,0,0,0-2.926-.023,13.113,13.113,0,0,0-.907,6.612c-3.5-1.646-9.234-5.269-10.484-12.47a1.569,1.569,0,0,0-2.99-.345,11.811,11.811,0,0,0-.948,6.055c-6.525-2.8-24.5-9.343-51.317-9.488-5.176-.475-9.29-3.066-12.67-6.95a43.462,43.462,0,0,1-7.763-14.425A73.925,73.925,0,0,1,255.3,89.021c-.486-4.573-.282-8.353.057-9.437a1.569,1.569,0,0,0-.765-1.857s-32.8-17.253-96.914-24.838A552.745,552.745,0,0,0,92.6,49.2Zm74.876,34.168c-9.77.074-20.256.438-31.275,1.221-58.863,4.184-118.122,24.75-118.122,24.75a1.569,1.569,0,0,0,.9,3S139.837,82,240.8,99.785a1.562,1.562,0,0,0,.271.025h0a1.569,1.569,0,0,0,1.5-2.034l-2.639-8.516a1.569,1.569,0,0,0-1.225-1.081s-28.908-5.132-71.236-4.814h-.012Zm71.77,18.138c-10.389-.044-42.356,1.265-90.371,16.289-60.258,18.855-94.554,45.659-94.554,45.659a1.569,1.569,0,0,0,1.732,2.6s89.223-49.761,189.7-52.585a1.569,1.569,0,0,0,1.445-2.06l-2.887-8.74a1.569,1.569,0,0,0-1.385-1.073s-1.279-.084-3.677-.094Zm65.7-.146a1.569,1.569,0,0,0-.849,2.873h0a1.569,1.569,0,0,0,.293.154c27.555,11.2,51.455,26.01,69.981,46.365l.051.053,0,0a1.569,1.569,0,0,0,1.211.456l4.5-.293a1.569,1.569,0,0,0,1.108-2.563S355.2,116.855,305.568,101.48l-.016-.008-.076-.027-.043-.014a1.57,1.57,0,0,0-.493-.074ZM383.4,167.783c.9.182,2.6,3.527,4.163,5.916.137.194.277.4.408.564a.059.059,0,0,0,.012.039c.176.252.352.513.521.722.085.5.227.8-.942.564a1.24,1.24,0,0,0-.267-.663,16.963,16.963,0,0,1-3.688-2.869,4.8,4.8,0,0,1-.6-4.063.351.351,0,0,1,.386-.211Z" transform="translate(0.329 0.532)" opacity="0.2"/>
    <g id="Group_2" data-name="Group 2" transform="translate(10.519 38.682)">
      <path id="Path_10" data-name="Path 10" d="M73.5,127.71c-30.956.035-51.427,2.543-51.427,2.543s113.184-5.432,203.853,31.276c3.082,13.786,12.354,36.747,17.349,47.784-14.291,9.88-30.405,19.173-32.914,52.124s25.82,61.931,60.95,62.826c33.359,1.777,56.406,2.03,84.341,16.514,26.665,14.745,48.531,59.669,50.694,100.074,2.337-29.979-8.914-94.446-61.412-114.025,73.361,12.838,79.829,67.212,79.831,67.234,0,0,5.469-62.779-93.167-77.254a320.7,320.7,0,0,0-44.3-3.287c-79.056,1.045-81.937-91.18-22.366-95.836,24.689-2.037,54.166,11.282,82.985,24.7-.107,3.579.042,6.76,2.394,9.7s11.38,6.143,14.267,7.8,12.129,7.535,17.794,14.907c1.228-2.3,11.486-8.976,11.486-8.976s-2.458.053-8.175-2.084-12.5-8.6-12.663-8.976-.268-.962,1.068-1.23c1.015-.854-1.283-3.633-2.3-4.647s-7.8-12.555-7.96-12.822a1.875,1.875,0,0,0-.695-.856c-1.5-.481-8.069.695-8.069.695s-10.108-4.964-13.592-15.668c.051,1.875-1.733,3.923,0,8.23-5.27-2.229-9.8-6.032-13.367-15.428-2.125,5.344,0,8.743,0,8.743s-12.409-3.469-14.395-14.914c-2.179,5.138,0,8.228,0,8.228s-20.233-10.557-53.85-10.71c-22.507-2.065-27.192-41.658-25.107-48.323,0,0-32.463-17.11-96.367-24.668A551.193,551.193,0,0,0,73.5,127.705Zm74.885,34.167c-9.739.073-20.193.437-31.176,1.217C58.63,167.259-.509,187.761-.509,187.761S120.5,157.314,221.983,175.184h0l-2.639-8.516s-28.759-4.79-70.962-4.79Zm71.751,18.137c-10.244-.043-42.046,1.245-89.9,16.217-60.016,18.779-94.054,45.4-94.054,45.4s89.452-49.946,190.416-52.784l-2.888-8.739s-1.215-.082-3.579-.092Zm65.726-.146c27.716,11.266,51.838,26.193,70.565,46.768l0,0,4.5-.294s-25.759-31.252-75.063-46.476ZM364.3,244.725c.9.182,2.6,3.527,4.165,5.916.137.194.277.4.409.564,0,.014,0,.025.006.039.177.252.354.513.523.723.085.5.227.8-.942.564a1.223,1.223,0,0,0-.268-.662,16.987,16.987,0,0,1-3.687-2.87,4.8,4.8,0,0,1-.6-4.063.35.35,0,0,1,.39-.21Z" transform="translate(0.509 -127.705)" fill="#fff" opacity="0.5"/>
      <path id="Path_11" data-name="Path 11" d="M73.5,127.71c-30.956.035-51.427,2.543-51.427,2.543s113.184-5.432,203.853,31.276c3.082,13.786,12.354,36.747,17.349,47.784-14.291,9.88-30.405,19.173-32.914,52.124s25.82,61.931,60.95,62.826c33.359,1.777,56.406,2.03,84.341,16.514,26.665,14.745,48.531,59.669,50.694,100.074,2.337-29.979-8.914-94.446-61.412-114.025,73.361,12.838,79.829,67.212,79.831,67.234,0,0,5.469-62.779-93.167-77.254a320.7,320.7,0,0,0-44.3-3.287c-79.056,1.045-81.937-91.18-22.366-95.836,24.689-2.037,54.166,11.282,82.985,24.7-.107,3.579.042,6.76,2.394,9.7s11.38,6.143,14.267,7.8,12.129,7.535,17.794,14.907c1.228-2.3,11.486-8.976,11.486-8.976s-2.458.053-8.175-2.084-12.5-8.6-12.663-8.976-.268-.962,1.068-1.23c1.015-.854-1.283-3.633-2.3-4.647s-7.8-12.555-7.96-12.822a1.875,1.875,0,0,0-.695-.856c-1.5-.481-8.069.695-8.069.695s-10.108-4.964-13.592-15.668c.051,1.875-1.733,3.923,0,8.23-5.27-2.229-9.8-6.032-13.367-15.428-2.125,5.344,0,8.743,0,8.743s-12.409-3.469-14.395-14.914c-2.179,5.138,0,8.228,0,8.228s-20.233-10.557-53.85-10.71c-22.507-2.065-27.192-41.658-25.107-48.323,0,0-32.463-17.11-96.367-24.668A551.193,551.193,0,0,0,73.5,127.705Zm74.885,34.167c-9.739.073-20.193.437-31.176,1.217C58.63,167.259-.509,187.761-.509,187.761S120.5,157.314,221.983,175.184h0l-2.639-8.516s-28.759-4.79-70.962-4.79Zm71.751,18.137c-10.244-.043-42.046,1.245-89.9,16.217-60.016,18.779-94.054,45.4-94.054,45.4s89.452-49.946,190.416-52.784l-2.888-8.739s-1.215-.082-3.579-.092Zm65.726-.146c27.716,11.266,51.838,26.193,70.565,46.768l0,0,4.5-.294s-25.759-31.252-75.063-46.476ZM364.3,244.725c.9.182,2.6,3.527,4.165,5.916.137.194.277.4.409.564,0,.014,0,.025.006.039.177.252.354.513.523.723.085.5.227.8-.942.564a1.223,1.223,0,0,0-.268-.662,16.987,16.987,0,0,1-3.687-2.87,4.8,4.8,0,0,1-.6-4.063.35.35,0,0,1,.39-.21Z" transform="translate(0.509 -127.705)" fill="#fff"/>
    </g>
  </g>
</svg>
