<svg xmlns="http://www.w3.org/2000/svg" width="100" height="" viewBox="0 0 20 10.172">
  <path id="kali-logo" d="M49.512,30.024A.858.858,0,0,0,49.287,30H30.655a.66.66,0,0,0-.618.442A.767.767,0,0,0,30,30.7v8.813a.663.663,0,0,0,.662.655c.763,0,2.333,0,2.333,0l0-.682H30.7c-.012-.073-.009-8.7,0-8.738.07-.01,18.538-.006,18.579,0,.011.067.008,8.692,0,8.738H33.832v.682H49.343a.661.661,0,0,0,.616-.437A.736.736,0,0,0,50,39.479V30.65a.664.664,0,0,0-.485-.625ZM33.832,37.6V35.836a.105.105,0,0,1,.044-.093c.136-.108.271-.219.405-.328l.043-.031c.015.019.027.034.038.051l.686.988q.42.608.841,1.213a.07.07,0,0,0,.064.041h.883a.179.179,0,0,0,.035-.007l-1.95-2.838c.131-.152.257-.3.384-.448l.38-.442.379-.442c.126-.148.253-.3.378-.443s.251-.293.384-.45h-.074c-.266,0-.533,0-.8,0a.131.131,0,0,0-.112.052q-.982,1.163-1.967,2.325c-.009.01-.02.019-.039.036V33.09c0-.16,0-.32,0-.479H33.01v5.057c.065.011.78.009.825,0V37.6Zm4.4.073c.007-.019.014-.036.02-.053l.4-1.134c.022-.061.044-.122.064-.183.008-.025.021-.039.048-.036a.253.253,0,0,0,.028,0h1.878c.17.47.338.937.506,1.4h.879q-.951-2.549-1.9-5.084h-.9a.167.167,0,0,0-.012.027L37.366,37.65a.016.016,0,0,0,0,.011v.005s0,0,0,.006h.859Zm.76-2.178c.173-.5.349-1,.517-1.5.068-.2.119-.41.176-.616,0-.016.008-.031.015-.055a.128.128,0,0,1,.018.03c.138.513.326,1.012.5,1.515.071.21.144.418.217.628l.018.061H38.969c.007-.022.012-.041.019-.059ZM43.439,33c0-.131,0-.261,0-.39h-.813c-.014.063-.01,5.021,0,5.063h2.962v-.7H44.158c-.12,0-.241,0-.361,0s-.235,0-.357,0V33Zm3.535-.359a.065.065,0,0,0,0-.023s0,0,0,0,0,0,0,0H46.15v5.06h.82a.063.063,0,0,0,0-.019V32.641Z" transform="translate(-29.998 -30)" fill="#fff" fill-rule="evenodd"/>
</svg>
